<?xml version="1.0" encoding="utf-8"?>
<!-- Generator: Adobe Illustrator 25.2.1, SVG Export Plug-In . SVG Version: 6.00 Build 0)  -->
<svg version="1.1" id="Layer_1" xmlns="http://www.w3.org/2000/svg" xmlns:xlink="http://www.w3.org/1999/xlink" x="0px" y="0px"
	 viewBox="0 0 180 24" style="enable-background:new 0 0 180 24;" xml:space="preserve">
<style type="text/css">
	.st0{fill:#1E9BDA;}
	.st1{fill:#3A3A3C;}
</style>
<g>
	<path class="st0" d="M29.35,16.27l0.81-1.79c0.86,0.63,2.16,1.07,3.39,1.07c1.41,0,1.98-0.47,1.98-1.1c0-1.92-5.97-0.6-5.97-4.41
		c0-1.75,1.41-3.2,4.33-3.2c1.29,0,2.61,0.31,3.56,0.91l-0.73,1.8c-0.95-0.54-1.94-0.81-2.85-0.81c-1.41,0-1.95,0.53-1.95,1.17
		c0,1.89,5.97,0.59,5.97,4.36c0,1.72-1.42,3.18-4.35,3.18C31.91,17.46,30.26,16.97,29.35,16.27z"/>
	<path class="st0" d="M39.07,7.02c0-0.72,0.57-1.28,1.42-1.28s1.42,0.53,1.42,1.23c0,0.76-0.57,1.32-1.42,1.32
		S39.07,7.73,39.07,7.02z M39.35,9.39h2.29v7.89h-2.29V9.39z"/>
	<path class="st0" d="M43,16.55l0.76-1.64c0.7,0.45,1.77,0.76,2.74,0.76c1.06,0,1.45-0.28,1.45-0.72c0-1.29-4.77,0.03-4.77-3.12
		c0-1.5,1.35-2.55,3.65-2.55c1.08,0,2.29,0.25,3.04,0.69l-0.76,1.63c-0.78-0.44-1.55-0.59-2.27-0.59c-1.03,0-1.47,0.32-1.47,0.73
		c0,1.35,4.77,0.04,4.77,3.15c0,1.47-1.36,2.51-3.72,2.51C45.08,17.4,43.73,17.03,43,16.55z"/>
	<path class="st0" d="M56.63,16.9c-0.47,0.34-1.16,0.5-1.86,0.5c-1.86,0-2.95-0.95-2.95-2.83v-3.24H50.6V9.57h1.22V7.65h2.29v1.92
		h1.96v1.76h-1.96v3.21c0,0.67,0.37,1.04,0.98,1.04c0.34,0,0.67-0.1,0.92-0.29L56.63,16.9z"/>
	<path class="st0" d="M65.36,13.98h-5.97c0.22,0.98,1.06,1.58,2.26,1.58c0.84,0,1.44-0.25,1.98-0.76l1.22,1.32
		c-0.73,0.84-1.83,1.28-3.26,1.28c-2.73,0-4.5-1.72-4.5-4.06c0-2.36,1.8-4.06,4.21-4.06c2.32,0,4.11,1.55,4.11,4.09
		C65.4,13.54,65.37,13.79,65.36,13.98z M59.36,12.65h3.89c-0.16-1-0.91-1.64-1.94-1.64C60.27,11,59.52,11.63,59.36,12.65z"/>
	<path class="st0" d="M80.25,12.76v4.52h-2.29v-4.16c0-1.28-0.57-1.86-1.5-1.86c-1.03,0-1.75,0.66-1.75,2.07v3.96h-2.29v-4.16
		c0-1.28-0.54-1.86-1.5-1.86c-1.01,0-1.73,0.66-1.73,2.07v3.96H66.9V9.39h2.19v0.91c0.59-0.67,1.47-1.03,2.48-1.03
		c1.1,0,2.04,0.43,2.6,1.29c0.63-0.81,1.66-1.29,2.84-1.29C78.9,9.27,80.25,10.36,80.25,12.76z"/>
	<path class="st0" d="M89.28,12.78v4.5h-2.14V16.3c-0.43,0.72-1.25,1.1-2.41,1.1c-1.85,0-2.95-1.03-2.95-2.39
		c0-1.39,0.98-2.36,3.39-2.36h1.82c0-0.98-0.59-1.55-1.82-1.55c-0.84,0-1.7,0.28-2.27,0.73l-0.82-1.6c0.87-0.62,2.14-0.95,3.4-0.95
		C87.88,9.27,89.28,10.39,89.28,12.78z M86.99,14.79v-0.81h-1.57c-1.07,0-1.41,0.4-1.41,0.92c0,0.57,0.48,0.95,1.29,0.95
		C86.07,15.86,86.73,15.51,86.99,14.79z"/>
	<path class="st0" d="M103.52,6.4v10.88h-2.18v-0.91c-0.57,0.69-1.41,1.03-2.46,1.03c-2.23,0-3.94-1.58-3.94-4.06
		s1.72-4.06,3.94-4.06c0.97,0,1.79,0.31,2.36,0.95V6.4H103.52z M101.28,13.34c0-1.36-0.88-2.19-2.01-2.19
		c-1.14,0-2.02,0.82-2.02,2.19s0.88,2.18,2.02,2.18C100.4,15.52,101.28,14.7,101.28,13.34z"/>
	<path class="st0" d="M113.02,13.98h-5.97c0.22,0.98,1.06,1.58,2.26,1.58c0.84,0,1.44-0.25,1.98-0.76l1.22,1.32
		c-0.73,0.84-1.83,1.28-3.26,1.28c-2.73,0-4.5-1.72-4.5-4.06c0-2.36,1.8-4.06,4.21-4.06c2.32,0,4.11,1.55,4.11,4.09
		C113.07,13.54,113.04,13.79,113.02,13.98z M107.02,12.65h3.89c-0.16-1-0.91-1.64-1.94-1.64C107.93,11,107.19,11.63,107.02,12.65z"
		/>
	<path class="st0" d="M117.8,16.27l0.81-1.79c0.86,0.63,2.16,1.07,3.39,1.07c1.41,0,1.98-0.47,1.98-1.1c0-1.92-5.97-0.6-5.97-4.41
		c0-1.75,1.41-3.2,4.33-3.2c1.29,0,2.61,0.31,3.56,0.91l-0.73,1.8c-0.95-0.54-1.94-0.81-2.84-0.81c-1.41,0-1.95,0.53-1.95,1.17
		c0,1.89,5.97,0.59,5.97,4.36c0,1.72-1.42,3.18-4.35,3.18C120.35,17.46,118.71,16.97,117.8,16.27z"/>
	<path class="st0" d="M127.21,13.34c0-2.38,1.83-4.06,4.34-4.06s4.33,1.69,4.33,4.06s-1.82,4.06-4.33,4.06
		S127.21,15.71,127.21,13.34z M133.56,13.34c0-1.36-0.87-2.19-2.01-2.19s-2.02,0.82-2.02,2.19s0.88,2.18,2.02,2.18
		S133.56,14.7,133.56,13.34z"/>
	<path class="st0" d="M145.99,13.34c0,2.48-1.72,4.06-3.93,4.06c-0.98,0-1.79-0.31-2.38-0.95v3.68h-2.29V9.39h2.19v0.91
		c0.57-0.69,1.42-1.03,2.48-1.03C144.27,9.27,145.99,10.86,145.99,13.34z M143.67,13.34c0-1.36-0.87-2.19-2.01-2.19
		s-2.01,0.82-2.01,2.19s0.87,2.18,2.01,2.18C142.81,15.52,143.67,14.7,143.67,13.34z"/>
	<path class="st0" d="M146.92,13.34c0-2.38,1.83-4.06,4.34-4.06s4.33,1.69,4.33,4.06s-1.82,4.06-4.33,4.06
		S146.92,15.71,146.92,13.34z M153.27,13.34c0-1.36-0.87-2.19-2.01-2.19s-2.02,0.82-2.02,2.19s0.88,2.18,2.02,2.18
		C152.41,15.52,153.27,14.7,153.27,13.34z"/>
	<path class="st0" d="M162.01,9.27v2.11c-0.19-0.01-0.34-0.03-0.51-0.03c-1.26,0-2.1,0.69-2.1,2.2v3.72h-2.29V9.39h2.19v1.04
		C159.85,9.67,160.79,9.27,162.01,9.27z"/>
	<path class="st0" d="M168.73,16.9c-0.47,0.34-1.16,0.5-1.86,0.5c-1.86,0-2.95-0.95-2.95-2.83v-3.24h-1.22V9.57h1.22V7.65h2.29v1.92
		h1.96v1.76h-1.96v3.21c0,0.67,0.37,1.04,0.98,1.04c0.34,0,0.67-0.1,0.92-0.29L168.73,16.9z"/>
	<path class="st0" d="M177.46,13.98h-5.97c0.22,0.98,1.06,1.58,2.26,1.58c0.84,0,1.44-0.25,1.98-0.76l1.22,1.32
		c-0.73,0.84-1.83,1.28-3.26,1.28c-2.73,0-4.5-1.72-4.5-4.06c0-2.36,1.8-4.06,4.21-4.06c2.32,0,4.11,1.55,4.11,4.09
		C177.5,13.54,177.47,13.79,177.46,13.98z M171.46,12.65h3.89c-0.16-1-0.91-1.64-1.94-1.64C172.37,11,171.62,11.63,171.46,12.65z"/>
</g>
<g>
	<g>
		<path class="st1" d="M13.65,5.52c1.32-1.13,2.47-2.43,3.47-3.93c0.29-0.44,0.91-0.5,1.25-0.1l1.83,2.14
			c0.2,0.24,0.24,0.58,0.1,0.86c-0.7,1.38-2.16,3.24-3.86,4.69c-3.68,3.15-8.27,4.88-12.88,4.87c-0.23,0-0.45-0.1-0.6-0.28
			l-1.83-2.14c-0.41-0.48-0.11-1.21,0.51-1.27C6.58,9.89,10.33,8.36,13.65,5.52z"/>
		<path class="st1" d="M12.19,14.64c3.71-3.17,8.32-4.93,12.99-4.87c0.17,0,0.32,0.08,0.43,0.2l2.16,2.53
			c0.3,0.35,0.07,0.88-0.39,0.92c-5.12,0.44-8.98,1.98-12.39,4.89c-1.4,1.2-2.61,2.57-3.63,4.18c-0.2,0.32-0.65,0.36-0.9,0.07
			l-2.12-2.48c-0.15-0.17-0.18-0.39-0.08-0.59C8.92,18.08,10.42,16.14,12.19,14.64z"/>
	</g>
	<g>
		<path class="st1" d="M5.84,4.49C5.2,3.31,5.65,2.05,6.8,1.42s2.45-0.32,3.09,0.87c0.63,1.17,0.21,2.47-0.94,3.09
			S6.47,5.66,5.84,4.49z"/>
	</g>
</g>
</svg>
