<?xml version="1.0" encoding="utf-8"?>
<!-- Generator: Adobe Illustrator 25.2.1, SVG Export Plug-In . SVG Version: 6.00 Build 0)  -->
<svg version="1.1" id="Layer_1" xmlns="http://www.w3.org/2000/svg" xmlns:xlink="http://www.w3.org/1999/xlink" x="0px" y="0px"
	 viewBox="0 0 201 201" style="enable-background:new 0 0 201 201;" xml:space="preserve">
<style type="text/css">
	.st0{fill:#FFFFFF;}
</style>
<g>
	<g>
		<path class="st0" d="M95,55.02c9.39-8.03,17.58-17.28,24.67-27.93c2.03-3.14,6.48-3.52,8.89-0.68l12.98,15.19
			c1.45,1.7,1.72,4.09,0.7,6.12c-4.99,9.82-15.31,23-27.4,33.32c-26.14,22.35-58.75,34.69-91.52,34.62
			c-1.65,0.01-3.18-0.71-4.26-1.98L6.09,98.49c-2.89-3.39-0.78-8.63,3.61-9.02C44.84,86.02,71.46,75.2,95,55.02z"/>
		<path class="st0" d="M84.65,119.75c26.36-22.52,59.12-34.99,92.25-34.62c1.18,0.03,2.26,0.57,3.05,1.42l15.34,17.95
			c2.11,2.47,0.5,6.24-2.76,6.51c-36.37,3.15-63.8,14.05-87.98,34.76c-9.97,8.52-18.51,18.26-25.8,29.68
			c-1.43,2.25-4.62,2.54-6.37,0.49l-15.03-17.6c-1.03-1.2-1.29-2.8-0.6-4.2C61.43,144.23,72.07,130.43,84.65,119.75z"/>
	</g>
	<g>
		<path class="st0" d="M39.52,47.68c-4.55-8.4-1.35-17.33,6.83-21.77s17.42-2.24,21.97,6.16c4.49,8.29,1.47,17.55-6.71,21.98
			S44,55.97,39.52,47.68z"/>
	</g>
</g>
</svg>
